<mxfile host="app.diagrams.net" modified="2024-04-25T07:13:59.480Z" agent="Mozilla/5.0 (Windows NT 10.0; Win64; x64; rv:125.0) Gecko/20100101 Firefox/125.0" etag="0M-KUQhs736A2ieDn9ib" version="24.3.0" type="device" pages="2">
  <diagram name="Page-1" id="kuC7IMIEE0bSXZzUWCCl">
    <mxGraphModel dx="359" dy="182" grid="1" gridSize="10" guides="1" tooltips="1" connect="1" arrows="1" fold="1" page="1" pageScale="1" pageWidth="850" pageHeight="1100" math="0" shadow="0">
      <root>
        <mxCell id="0" />
        <mxCell id="1" parent="0" />
        <mxCell id="mOG-N54UsRxWgWyEEFth-19" style="edgeStyle=orthogonalEdgeStyle;rounded=0;orthogonalLoop=1;jettySize=auto;html=1;exitX=1;exitY=0.3333333333333333;exitDx=0;exitDy=0;exitPerimeter=0;entryX=0.25;entryY=0;entryDx=0;entryDy=0;" parent="1" source="adJTIlIXHCjIG2NBrPXy-2" target="mOG-N54UsRxWgWyEEFth-11" edge="1">
          <mxGeometry relative="1" as="geometry" />
        </mxCell>
        <mxCell id="adJTIlIXHCjIG2NBrPXy-2" value="&lt;div&gt;Game client&lt;/div&gt;&lt;div&gt;&lt;br&gt;&lt;/div&gt;" style="shape=umlActor;verticalLabelPosition=bottom;verticalAlign=top;html=1;outlineConnect=0;" parent="1" vertex="1">
          <mxGeometry x="403.75" y="50" width="30" height="60" as="geometry" />
        </mxCell>
        <mxCell id="adJTIlIXHCjIG2NBrPXy-7" value="Gophercraft Home" style="swimlane;whiteSpace=wrap;html=1;fillColor=#dae8fc;strokeColor=#6c8ebf;" parent="1" vertex="1">
          <mxGeometry x="247.5" y="150" width="342.5" height="260" as="geometry" />
        </mxCell>
        <mxCell id="adJTIlIXHCjIG2NBrPXy-16" value="DB" style="shape=cylinder3;whiteSpace=wrap;html=1;boundedLbl=1;backgroundOutline=1;size=15;fillColor=#e1d5e7;strokeColor=#9673a6;" parent="adJTIlIXHCjIG2NBrPXy-7" vertex="1">
          <mxGeometry x="125.75" y="30" width="90" height="50" as="geometry" />
        </mxCell>
        <mxCell id="adJTIlIXHCjIG2NBrPXy-18" style="edgeStyle=orthogonalEdgeStyle;rounded=0;orthogonalLoop=1;jettySize=auto;html=1;exitX=0.5;exitY=0;exitDx=0;exitDy=0;entryX=0;entryY=0.5;entryDx=0;entryDy=0;entryPerimeter=0;" parent="adJTIlIXHCjIG2NBrPXy-7" source="adJTIlIXHCjIG2NBrPXy-14" target="adJTIlIXHCjIG2NBrPXy-16" edge="1">
          <mxGeometry relative="1" as="geometry" />
        </mxCell>
        <mxCell id="adJTIlIXHCjIG2NBrPXy-21" value="&lt;div&gt;Web&lt;/div&gt;&lt;div&gt;API&lt;br&gt;&lt;/div&gt;" style="rounded=0;whiteSpace=wrap;html=1;fillColor=#dae8fc;strokeColor=#6c8ebf;dashed=1;" parent="adJTIlIXHCjIG2NBrPXy-7" vertex="1">
          <mxGeometry x="137.5" y="100" width="67.5" height="95" as="geometry" />
        </mxCell>
        <mxCell id="adJTIlIXHCjIG2NBrPXy-15" value="&lt;div&gt;Core&lt;/div&gt;&lt;div&gt;GRPC&lt;br&gt;&lt;/div&gt;" style="rounded=0;whiteSpace=wrap;html=1;fillColor=#d5e8d4;strokeColor=#82b366;dashed=1;" parent="adJTIlIXHCjIG2NBrPXy-7" vertex="1">
          <mxGeometry x="242.5" y="100" width="77.37" height="95" as="geometry" />
        </mxCell>
        <mxCell id="adJTIlIXHCjIG2NBrPXy-29" style="edgeStyle=orthogonalEdgeStyle;rounded=0;orthogonalLoop=1;jettySize=auto;html=1;exitX=0.5;exitY=0;exitDx=0;exitDy=0;entryX=1;entryY=0.5;entryDx=0;entryDy=0;entryPerimeter=0;" parent="adJTIlIXHCjIG2NBrPXy-7" source="adJTIlIXHCjIG2NBrPXy-15" target="adJTIlIXHCjIG2NBrPXy-16" edge="1">
          <mxGeometry relative="1" as="geometry" />
        </mxCell>
        <mxCell id="adJTIlIXHCjIG2NBrPXy-35" value="Home services" style="text;html=1;align=center;verticalAlign=middle;whiteSpace=wrap;rounded=0;" parent="adJTIlIXHCjIG2NBrPXy-7" vertex="1">
          <mxGeometry x="106.25" y="220" width="130" height="40" as="geometry" />
        </mxCell>
        <mxCell id="mOG-N54UsRxWgWyEEFth-4" value="" style="endArrow=none;html=1;rounded=0;" parent="adJTIlIXHCjIG2NBrPXy-7" edge="1">
          <mxGeometry width="50" height="50" relative="1" as="geometry">
            <mxPoint x="152.5" y="-10" as="sourcePoint" />
            <mxPoint x="42.5" y="-10" as="targetPoint" />
          </mxGeometry>
        </mxCell>
        <mxCell id="adJTIlIXHCjIG2NBrPXy-14" value="&lt;div&gt;Alpha /&lt;/div&gt;&lt;div&gt;Grunt /&lt;/div&gt;&lt;div&gt;BNet&lt;br&gt;&lt;/div&gt;&lt;div&gt;Realmlist&lt;/div&gt;" style="rounded=0;whiteSpace=wrap;html=1;fillColor=#fff2cc;strokeColor=#d6b656;dashed=1;" parent="adJTIlIXHCjIG2NBrPXy-7" vertex="1">
          <mxGeometry x="22.5" y="100" width="77.5" height="95" as="geometry" />
        </mxCell>
        <mxCell id="F8qhxKmSkEbz8TpVmW_v-3" value="" style="endArrow=classic;html=1;rounded=0;" edge="1" parent="adJTIlIXHCjIG2NBrPXy-7">
          <mxGeometry width="50" height="50" relative="1" as="geometry">
            <mxPoint x="171.21" y="100" as="sourcePoint" />
            <mxPoint x="171.21" y="80" as="targetPoint" />
          </mxGeometry>
        </mxCell>
        <mxCell id="adJTIlIXHCjIG2NBrPXy-34" value="" style="verticalLabelPosition=bottom;shadow=0;dashed=0;align=center;html=1;verticalAlign=top;strokeWidth=1;shape=mxgraph.mockup.markup.curlyBrace;whiteSpace=wrap;strokeColor=#000000;rotation=-180;" parent="1" vertex="1">
          <mxGeometry x="270" y="350" width="300" height="30" as="geometry" />
        </mxCell>
        <mxCell id="mOG-N54UsRxWgWyEEFth-3" value="" style="endArrow=classic;html=1;rounded=0;entryX=0.25;entryY=0;entryDx=0;entryDy=0;" parent="1" target="adJTIlIXHCjIG2NBrPXy-14" edge="1">
          <mxGeometry width="50" height="50" relative="1" as="geometry">
            <mxPoint x="290" y="140" as="sourcePoint" />
            <mxPoint x="560" y="220" as="targetPoint" />
          </mxGeometry>
        </mxCell>
        <mxCell id="mOG-N54UsRxWgWyEEFth-8" value="" style="endArrow=none;html=1;rounded=0;" parent="1" edge="1">
          <mxGeometry width="50" height="50" relative="1" as="geometry">
            <mxPoint x="400" y="130" as="sourcePoint" />
            <mxPoint x="400" y="140" as="targetPoint" />
          </mxGeometry>
        </mxCell>
        <mxCell id="mOG-N54UsRxWgWyEEFth-23" style="edgeStyle=orthogonalEdgeStyle;rounded=0;orthogonalLoop=1;jettySize=auto;html=1;exitX=0.25;exitY=1;exitDx=0;exitDy=0;entryX=0.5;entryY=1;entryDx=0;entryDy=0;" parent="1" source="mOG-N54UsRxWgWyEEFth-11" target="adJTIlIXHCjIG2NBrPXy-15" edge="1">
          <mxGeometry relative="1" as="geometry">
            <Array as="points">
              <mxPoint x="638" y="460" />
              <mxPoint x="529" y="460" />
            </Array>
          </mxGeometry>
        </mxCell>
        <mxCell id="mOG-N54UsRxWgWyEEFth-11" value="&lt;div&gt;Gophercraft&lt;/div&gt;&lt;div&gt;World&lt;/div&gt;&lt;div&gt;#1&lt;br&gt;&lt;/div&gt;" style="rounded=0;whiteSpace=wrap;html=1;fillColor=#b0e3e6;strokeColor=#0e8088;" parent="1" vertex="1">
          <mxGeometry x="610" y="202.5" width="110" height="177.5" as="geometry" />
        </mxCell>
        <mxCell id="mOG-N54UsRxWgWyEEFth-12" style="edgeStyle=orthogonalEdgeStyle;rounded=0;orthogonalLoop=1;jettySize=auto;html=1;exitX=0.5;exitY=1;exitDx=0;exitDy=0;" parent="1" source="mOG-N54UsRxWgWyEEFth-11" target="mOG-N54UsRxWgWyEEFth-11" edge="1">
          <mxGeometry relative="1" as="geometry" />
        </mxCell>
        <mxCell id="mOG-N54UsRxWgWyEEFth-15" style="edgeStyle=orthogonalEdgeStyle;rounded=0;orthogonalLoop=1;jettySize=auto;html=1;exitX=0;exitY=0;exitDx=0;exitDy=0;entryX=0;entryY=0.3333333333333333;entryDx=0;entryDy=0;entryPerimeter=0;" parent="1" source="adJTIlIXHCjIG2NBrPXy-14" target="adJTIlIXHCjIG2NBrPXy-2" edge="1">
          <mxGeometry relative="1" as="geometry" />
        </mxCell>
        <mxCell id="mOG-N54UsRxWgWyEEFth-17" style="edgeStyle=orthogonalEdgeStyle;rounded=0;orthogonalLoop=1;jettySize=auto;html=1;exitX=0.5;exitY=1;exitDx=0;exitDy=0;" parent="1" source="mOG-N54UsRxWgWyEEFth-11" target="mOG-N54UsRxWgWyEEFth-11" edge="1">
          <mxGeometry relative="1" as="geometry" />
        </mxCell>
        <mxCell id="mOG-N54UsRxWgWyEEFth-24" value="&lt;div&gt;Announcement / Authentication&lt;br&gt;&lt;/div&gt;" style="text;html=1;align=center;verticalAlign=middle;whiteSpace=wrap;rounded=0;" parent="1" vertex="1">
          <mxGeometry x="520" y="410" width="130" height="60" as="geometry" />
        </mxCell>
        <mxCell id="mOG-N54UsRxWgWyEEFth-25" value="Realmlist" style="text;html=1;align=center;verticalAlign=middle;whiteSpace=wrap;rounded=0;" parent="1" vertex="1">
          <mxGeometry x="300" y="40" width="60" height="30" as="geometry" />
        </mxCell>
        <mxCell id="mOG-N54UsRxWgWyEEFth-37" value="Authentication" style="text;html=1;align=center;verticalAlign=middle;whiteSpace=wrap;rounded=0;" parent="1" vertex="1">
          <mxGeometry x="300" y="110" width="60" height="30" as="geometry" />
        </mxCell>
        <mxCell id="mOG-N54UsRxWgWyEEFth-38" value="Game connection" style="text;html=1;align=center;verticalAlign=middle;whiteSpace=wrap;rounded=0;" parent="1" vertex="1">
          <mxGeometry x="530" y="40" width="100" height="30" as="geometry" />
        </mxCell>
      </root>
    </mxGraphModel>
  </diagram>
  <diagram id="vr2odQvfitOk1b9Ar7IJ" name="Page-2">
    <mxGraphModel dx="474" dy="301" grid="1" gridSize="10" guides="1" tooltips="1" connect="1" arrows="1" fold="1" page="1" pageScale="1" pageWidth="850" pageHeight="1100" math="0" shadow="0">
      <root>
        <mxCell id="0" />
        <mxCell id="1" parent="0" />
      </root>
    </mxGraphModel>
  </diagram>
</mxfile>
